<svg xmlns="http://www.w3.org/2000/svg" viewBox="0 0 512 512">
  <defs>
    <linearGradient id="selGradient" x1="0%" y1="0%" x2="100%" y2="100%">
      <stop offset="0%" style="stop-color:#8B5CF6"/>
      <stop offset="100%" style="stop-color:#6366F1"/>
    </linearGradient>
  </defs>
  <!-- Background Circle -->
  <circle cx="256" cy="256" r="240" fill="url(#selGradient)"/>
  <!-- SNS Logo - Stylized S -->
  <path fill="#FFFFFF" d="
    M 320 160
    C 320 128, 288 112, 256 112
    C 192 112, 144 160, 144 224
    C 144 264, 168 288, 208 304
    L 280 336
    C 312 348, 336 372, 336 408
    C 336 456, 296 480, 240 480
    C 184 480, 152 448, 152 400
    L 200 400
    C 200 424, 220 440, 248 440
    C 280 440, 296 420, 296 396
    C 296 364, 272 344, 232 328
    L 168 300
    C 136 288, 112 256, 112 212
    C 112 152, 168 104, 248 104
    C 312 104, 360 140, 360 192
    L 320 192
    C 320 168, 292 152, 256 152
    C 224 152, 192 172, 192 208
    C 192 240, 216 256, 256 272
    L 320 296
    C 360 312, 384 344, 384 400
    C 384 464, 328 512, 240 512
    C 160 512, 112 464, 112 392
    L 160 392
    C 160 440, 192 472, 248 472
    C 304 472, 344 440, 344 396
    Z
  " transform="translate(8, -24) scale(0.9)"/>
  <!-- .sel text -->
  <text x="256" y="420" text-anchor="middle" fill="#FFFFFF" font-family="Arial, sans-serif" font-size="64" font-weight="bold">.sel</text>
</svg>
